<?xml version="1.0" encoding="UTF-8" standalone="no"?>
<!-- Created with Inkscape (http://www.inkscape.org/) -->

<svg
   version="1.1"
   id="svg2"
   xml:space="preserve"
   width="638.00934"
   height="184.04401"
   viewBox="0 0 638.00934 184.04401"
   sodipodi:docname="Seaboard-colombia.ai"
   xmlns:inkscape="http://www.inkscape.org/namespaces/inkscape"
   xmlns:sodipodi="http://sodipodi.sourceforge.net/DTD/sodipodi-0.dtd"
   xmlns="http://www.w3.org/2000/svg"
   xmlns:svg="http://www.w3.org/2000/svg"><defs
     id="defs6"><clipPath
       clipPathUnits="userSpaceOnUse"
       id="clipPath16"><path
         d="M 0,138.033 H 478.507 V 0 H 0 Z"
         id="path14" /></clipPath></defs><sodipodi:namedview
     id="namedview4"
     pagecolor="#ffffff"
     bordercolor="#666666"
     borderopacity="1.0"
     inkscape:pageshadow="2"
     inkscape:pageopacity="0.0"
     inkscape:pagecheckerboard="0" /><g
     id="g8"
     inkscape:groupmode="layer"
     inkscape:label="Seaboard-colombia"
     transform="matrix(1.3333333,0,0,-1.3333333,0,184.044)"><g
       id="g10"><g
         id="g12"
         clip-path="url(#clipPath16)"><g
           id="g18"
           transform="translate(37.2645,53.883)"><path
             d="M 0,0 V 16.976 H 1.947 C 4.153,5.892 9.384,0.351 17.639,0.351 c 3.711,0 6.585,1.059 8.623,3.179 2.038,2.119 3.057,4.493 3.057,7.12 0,2.653 -0.895,4.876 -2.686,6.671 -1.791,1.769 -5.062,3.666 -9.812,5.69 -4.232,1.817 -7.424,3.407 -9.579,4.77 -2.154,1.363 -3.835,3.135 -5.042,5.315 -1.207,2.18 -1.81,4.503 -1.81,6.969 0,3.763 1.304,6.898 3.912,9.403 2.609,2.505 5.912,3.758 9.91,3.758 2.232,0 4.335,-0.364 6.308,-1.09 1.972,-0.727 3.996,-2.233 6.073,-4.517 1.194,1.427 1.869,2.972 2.025,4.633 h 1.714 V 38.43 h -1.714 c -0.987,4.011 -2.732,7.168 -5.237,9.472 -2.505,2.303 -5.406,3.455 -8.702,3.455 -3.141,0 -5.445,-0.85 -6.911,-2.549 -1.467,-1.699 -2.2,-3.561 -2.2,-5.585 0,-2.439 0.919,-4.501 2.757,-6.187 1.812,-1.712 5.096,-3.628 9.851,-5.746 4.547,-2.015 7.853,-3.639 9.917,-4.872 2.063,-1.233 3.718,-2.939 4.964,-5.12 1.246,-2.18 1.869,-4.698 1.869,-7.554 0,-4.516 -1.506,-8.19 -4.517,-11.018 C 27.398,-0.105 23.375,-1.519 18.339,-1.519 12.55,-1.519 7.722,0.701 3.855,5.14 2.999,3.919 2.362,2.205 1.947,0 Z"
             style="fill:#1d4692;fill-opacity:1;fill-rule:nonzero;stroke:none"
             id="path20" /></g><g
           id="g22"
           transform="translate(116.582,69.7691)"><path
             d="M 0,0 H 1.869 L 0.72,-16.432 h -43.705 v 1.793 h 1.09 c 2.621,0 4.315,0.349 5.08,1.05 0.766,0.701 1.253,1.59 1.461,2.668 0.207,1.076 0.311,3.821 0.311,8.234 v 25.893 c 0,4.023 -0.111,6.671 -0.331,7.943 -0.22,1.272 -0.727,2.161 -1.518,2.667 -0.792,0.506 -2.46,0.759 -5.003,0.759 v 1.791 h 37.767 l 1.208,-13.16 h -1.791 c -0.831,3.686 -1.85,6.301 -3.057,7.846 -1.207,1.544 -2.641,2.517 -4.302,2.92 -1.662,0.402 -4.336,0.603 -8.021,0.603 h -7.32 V 12.421 h 5.623 c 2.577,0 4.38,0.22 5.408,0.662 1.028,0.44 1.704,1.109 2.03,2.005 0.325,0.895 0.489,2.641 0.489,5.236 h 1.791 V 2.258 h -1.791 c 0,2.933 -0.248,4.899 -0.743,5.899 -0.494,0.999 -1.216,1.648 -2.167,1.947 -0.95,0.298 -2.557,0.447 -4.822,0.447 h -5.818 V -1.947 c 0,-6.256 0.401,-9.935 1.205,-11.038 0.803,-1.104 2.967,-1.654 6.493,-1.654 h 3.927 c 2.773,0 5.054,0.352 6.843,1.059 1.789,0.709 3.493,2.172 5.113,4.391 C -2.21,-6.97 -0.934,-3.907 0,0"
             style="fill:#1d4692;fill-opacity:1;fill-rule:nonzero;stroke:none"
             id="path24" /></g><g
           id="g26"
           transform="translate(153.0495,74.5579)"><path
             d="M 0,0 -9.308,22.506 -18.625,0 Z M 0.724,-1.752 H -19.35 L -20.736,-5.1 c -2.025,-4.855 -3.037,-8.021 -3.037,-9.501 0,-1.583 0.539,-2.785 1.616,-3.601 1.077,-0.818 2.459,-1.226 4.146,-1.226 v -1.793 h -15.691 v 1.793 c 2.337,0.361 4.075,1.185 5.218,2.469 1.141,1.281 2.517,3.984 4.127,8.105 0.157,0.387 0.787,1.896 1.887,4.525 l 15.342,36.646 h 1.5 l 17.675,-41.933 2.419,-5.529 c 0.541,-1.246 1.269,-2.226 2.185,-2.94 0.915,-0.715 2.288,-1.163 4.119,-1.343 v -1.793 H 0.056 v 1.793 c 2.544,0 4.263,0.188 5.159,0.563 0.896,0.376 1.343,1.123 1.343,2.239 0,0.571 -0.597,2.271 -1.791,5.101 z"
             style="fill:#1d4692;fill-opacity:1;fill-rule:nonzero;stroke:none"
             id="path28" /></g><g
           id="g30"
           transform="translate(189.9405,80.6326)"><path
             d="m 0,0 v -11.759 c 0,-5.01 0.091,-8.19 0.273,-9.539 0.181,-1.35 0.668,-2.375 1.46,-3.076 0.791,-0.701 2.355,-1.052 4.692,-1.052 4.152,0 7.267,1.065 9.344,3.193 2.077,2.128 3.115,5.321 3.115,9.578 0,4.361 -1.174,7.573 -3.524,9.637 C 13.011,-0.954 8.877,0.078 2.959,0.078 2.025,0.078 1.038,0.051 0,0 M 0,1.908 C 0.648,1.881 1.194,1.869 1.636,1.869 c 5.606,0 9.435,0.882 11.486,2.647 2.05,1.765 3.075,4.62 3.075,8.566 0,2.751 -0.403,4.88 -1.206,6.386 -0.806,1.505 -2.013,2.667 -3.622,3.484 C 9.76,23.77 7.009,24.179 3.115,24.179 2.102,24.179 1.064,24.14 0,24.062 Z m 9.539,-0.74 c 5.997,-0.442 10.448,-1.937 13.356,-4.484 2.907,-2.548 4.36,-5.732 4.36,-9.553 0,-3.327 -0.987,-6.193 -2.959,-8.597 -1.973,-2.404 -4.497,-3.977 -7.573,-4.717 -3.076,-0.741 -7.197,-1.112 -12.362,-1.112 h -20.714 v 1.792 h 2.024 c 2.259,0 3.823,0.284 4.692,0.855 0.87,0.571 1.421,1.461 1.655,2.668 0.234,1.208 0.351,4.017 0.351,8.43 v 25.698 c 0,4.283 -0.124,7.047 -0.372,8.293 -0.248,1.246 -0.77,2.103 -1.565,2.57 -0.796,0.467 -2.536,0.701 -5.223,0.701 h -1.017 v 1.791 l 8.692,0.233 9.899,0.312 c 14.446,0 21.669,-4.147 21.669,-12.44 0,-3.422 -1.24,-6.168 -3.719,-8.242 C 18.255,3.293 14.523,1.893 9.539,1.168"
             style="fill:#1d4692;fill-opacity:1;fill-rule:nonzero;stroke:none"
             id="path32" /></g><g
           id="g34"
           transform="translate(312.6895,74.5579)"><path
             d="M 0,0 -9.308,22.506 -18.626,0 Z M 0.725,-1.752 H -19.351 L -20.736,-5.1 c -2.026,-4.855 -3.037,-8.021 -3.037,-9.501 0,-1.583 0.539,-2.785 1.616,-3.601 1.077,-0.818 2.46,-1.226 4.146,-1.226 v -1.793 h -15.692 v 1.793 c 2.337,0.361 4.076,1.185 5.218,2.469 1.142,1.281 2.517,3.984 4.129,8.105 0.156,0.387 0.785,1.896 1.886,4.525 l 15.342,36.646 h 1.501 l 17.674,-41.933 2.418,-5.529 c 0.542,-1.246 1.27,-2.226 2.185,-2.94 0.916,-0.715 2.289,-1.163 4.119,-1.343 v -1.793 H 0.055 v 1.793 c 2.544,0 4.264,0.188 5.16,0.563 0.896,0.376 1.344,1.123 1.344,2.239 0,0.571 -0.599,2.271 -1.792,5.101 z"
             style="fill:#1d4692;fill-opacity:1;fill-rule:nonzero;stroke:none"
             id="path36" /></g><g
           id="g38"
           transform="translate(349.425,80.5933)"><path
             d="m 0,0 c 1.946,0.052 3.958,0.13 6.034,0.234 2.077,0.103 3.881,0.389 5.413,0.856 1.532,0.467 2.77,1.149 3.719,2.045 0.947,0.895 1.694,2.069 2.238,3.523 0.547,1.453 0.819,3.244 0.819,5.373 0,3.712 -0.93,6.684 -2.784,8.917 C 13.581,23.18 9.539,24.296 3.31,24.296 2.349,24.296 1.245,24.244 0,24.14 Z M 39.91,-27.256 H 25.698 c -2.517,1.766 -6.371,6.386 -11.565,13.862 -1.66,2.388 -3.387,4.678 -5.177,6.872 -1.792,2.193 -3.025,3.53 -3.7,4.011 -0.674,0.48 -1.727,0.72 -3.153,0.72 H 0 v -11.72 c 0,-4.153 0.099,-6.872 0.292,-8.157 0.195,-1.286 0.715,-2.24 1.558,-2.861 0.843,-0.624 2.46,-0.935 4.847,-0.935 h 2.532 v -1.792 h -25.27 v 1.792 h 1.713 c 2.257,0 3.823,0.285 4.692,0.855 0.87,0.571 1.422,1.461 1.655,2.668 0.234,1.208 0.35,4.017 0.35,8.43 v 25.893 c 0,4.205 -0.116,6.917 -0.35,8.138 -0.233,1.219 -0.754,2.063 -1.558,2.53 -0.805,0.467 -2.544,0.701 -5.218,0.701 h -0.896 v 1.791 l 7.554,0.39 c 5.037,0.233 9.034,0.35 11.992,0.35 5.037,0 9.132,-0.467 12.285,-1.402 3.153,-0.934 5.704,-2.466 7.651,-4.594 1.946,-2.129 2.919,-4.673 2.919,-7.632 0,-3.453 -1.272,-6.399 -3.815,-8.838 -2.544,-2.44 -6.28,-3.959 -11.214,-4.556 2.209,-1.063 5.767,-4.905 10.672,-11.525 3.996,-5.373 7.135,-8.891 9.421,-10.551 2.283,-1.663 4.984,-2.544 8.098,-2.648 z"
             style="fill:#1d4692;fill-opacity:1;fill-rule:nonzero;stroke:none"
             id="path40" /></g><g
           id="g42"
           transform="translate(402.9289,104.6165)"><path
             d="m 0,0 v -35.248 c 0,-5.213 0.096,-8.573 0.291,-10.076 0.193,-1.505 0.776,-2.561 1.747,-3.17 0.971,-0.61 3.023,-0.916 6.155,-0.916 4.584,0 8.349,0.629 11.302,1.886 2.951,1.259 5.415,3.736 7.398,7.432 1.98,3.696 2.97,8.41 2.97,14.143 0,4.46 -0.576,8.441 -1.727,11.943 -1.154,3.502 -2.804,6.349 -4.953,8.54 -2.149,2.191 -4.531,3.683 -7.145,4.474 C 13.422,-0.201 10.072,0.195 5.979,0.195 4.013,0.195 2.019,0.13 0,0 m -16.315,1.091 8.676,0.428 c 7.237,0.363 12.115,0.545 14.63,0.545 7.833,0 13.942,-1.194 18.326,-3.582 4.385,-2.389 7.646,-5.627 9.785,-9.715 2.139,-4.088 3.211,-8.806 3.211,-14.153 0,-3.868 -0.585,-7.404 -1.751,-10.61 -1.168,-3.206 -2.77,-5.867 -4.806,-7.982 -2.035,-2.116 -4.396,-3.725 -7.082,-4.827 -2.683,-1.105 -5.232,-1.792 -7.643,-2.065 -2.414,-0.272 -5.813,-0.409 -10.195,-0.409 h -23.385 v 1.792 h 2.18 c 2.259,0 3.823,0.284 4.692,0.855 0.87,0.571 1.429,1.461 1.675,2.668 0.245,1.208 0.371,4.017 0.371,8.43 v 25.464 c 0,4.205 -0.126,6.924 -0.371,8.157 -0.246,1.233 -0.766,2.077 -1.556,2.531 -0.793,0.454 -2.525,0.682 -5.199,0.682 h -1.558 z"
             style="fill:#1d4692;fill-opacity:1;fill-rule:nonzero;stroke:none"
             id="path44" /></g><g
           id="g46"
           transform="translate(252.5301,112.0319)"><path
             d="m 0,0 c -16.702,0 -30.29,-13.588 -30.29,-30.291 0,-16.702 13.588,-30.291 30.29,-30.291 16.703,0 30.291,13.589 30.291,30.291 C 30.291,-13.588 16.703,0 0,0 m 0,-62.432 c -17.723,0 -32.142,14.418 -32.142,32.141 0,17.723 14.419,32.142 32.142,32.142 17.724,0 32.143,-14.419 32.143,-32.142 0,-17.723 -14.419,-32.141 -32.143,-32.141"
             style="fill:#a18847;fill-opacity:1;fill-rule:nonzero;stroke:none"
             id="path48" /></g><g
           id="g50"
           transform="translate(238.3677,108.8706)"><path
             d="m 0,0 c 0,0 -4.681,-4.346 -0.861,-6.014 3.82,-1.666 3.019,1.621 3.019,1.621 0,0 1.932,2.996 4.927,0.514 3.187,-2.644 2.473,1.623 3.805,-3.855 0.568,3.551 3.807,-3.307 1.073,-2.743 -2.731,0.567 -3.844,-2.162 -3.844,-2.162 l -2.21,-3.267 c 0,0 -1.685,-6.554 -3.313,-4.354 -1.628,2.2 -3.82,1.121 -3.82,1.121 0,0 -3.56,-0.25 -1.941,-3.543 1.619,-3.293 2.183,-1.11 5.181,-2.497 2.48,-1.149 -1.108,-1.634 1.627,-2.2 2.731,-0.566 5.488,2.697 6.568,0.502 1.077,-2.195 5.992,-3.872 5.992,-3.872 l 4.359,-2.216 -0.567,-3.278 c 0,0 -4.096,-4.454 -4.971,-6.531 -1.945,-4.638 -7.575,-0.932 -5.489,-2.698 3.264,-2.757 -2.217,-4.361 -2.217,-4.361 0,0 0.532,-2.192 1.896,-2.749 0.489,-1.28 0.649,-3.698 1.665,-4.521 -2.191,-0.532 -4.436,0.856 -4.436,0.856 0,0 -0.208,8.063 0.35,9.698 1.661,2.999 0.03,4.377 0.03,4.377 0,0 3.289,4.542 0.581,4.921 -4.099,0.574 -2.984,3.303 -2.984,3.303 0,0 0.856,5.464 -1.325,6.573 -2.183,1.109 -3.278,0.569 -3.278,0.569 0,0 -3.836,-1.068 -4.365,1.671 -0.529,2.739 -0.551,-0.544 -2.725,1.661 0,0 -2.732,0.565 -4.348,4.406 -0.015,-2.189 -0.527,2.465 -2.175,1.655 -1.648,-0.808 -2.198,-1.352 -2.198,-1.352 l 2.502,6.002 3.596,5.718 5.781,5.43 z m 2.646,-12.873 c 0,0 -2.441,3.024 -3.004,0.565 -0.562,-2.457 -0.297,-3.553 1.894,-2.748 2.197,0.805 1.11,2.183 1.11,2.183"
             style="fill:#a18847;fill-opacity:1;fill-rule:evenodd;stroke:none"
             id="path52" /></g><g
           id="g54"
           transform="translate(248.839,112.6828)"><path
             d="m 0,0 c 0,0 3.009,-0.82 3.009,-2.187 0,-1.369 1.096,-3.832 1.096,-3.832 0,0 2.734,-1.639 2.462,0 -0.274,1.642 -1.64,3.558 0,3.832 1.641,0.272 4.924,1.367 4.924,1.367 L 5.746,0.275 Z"
             style="fill:#a18847;fill-opacity:1;fill-rule:nonzero;stroke:none"
             id="path56" /></g><g
           id="g58"
           transform="translate(268.8068,108.3058)"><path
             d="m 0,0 c 0,0 1.915,-1.642 0.275,-2.734 -1.641,-1.096 -3.828,-1.915 -2.734,-2.461 1.093,-0.548 5.742,-1.096 3.827,-2.736 -1.915,-1.643 -1.915,-3.282 -1.915,-3.282 0,0 -3.553,-0.548 -1.091,-1.915 2.459,-1.368 3.278,-0.821 1.638,-2.462 -1.638,-1.64 -4.1,-2.736 -4.1,-4.377 0,-1.641 0.547,-4.103 1.366,-5.744 0.819,-1.641 3.009,-1.367 4.374,-1.367 1.371,0 3.831,1.641 4.652,-0.548 0.821,-2.188 0.821,-1.641 1.366,-4.101 0.549,-2.464 0,-4.105 1.37,-4.924 1.366,-0.821 0.82,-2.736 0.82,-2.736 0,0 -0.82,-5.471 -1.641,-6.566 -0.821,-1.094 4.375,6.291 4.375,6.291 l 2.464,10.669 -0.993,11.666 -3.659,7.208 c 0,0 1.643,-2.463 -0.272,-3.83 -1.915,-1.367 -4.651,-0.819 -4.651,-0.819 0,0 -1.641,0.819 -1.641,2.734 0,1.915 -0.275,3.829 0.822,3.281 1.091,-0.545 3.283,-0.821 3.006,-1.914 -0.272,-1.094 0.549,-1.915 1.645,-1.367 1.091,0.547 1.913,0.821 1.913,0.821 L 7.113,-5.471 3.011,-1.642 0,0"
             style="fill:#a18847;fill-opacity:1;fill-rule:evenodd;stroke:none"
             id="path60" /></g></g></g><text
       transform="matrix(1,0,0,-1,248.5303,21.7988)"
       style="font-variant:normal;font-weight:normal;font-stretch:normal;font-size:24px;font-family:'Times New Roman';-inkscape-font-specification:TimesNewRomanPSMT;writing-mode:lr-tb;fill:#1d4692;fill-opacity:1;fill-rule:nonzero;stroke:none"
       id="text64"><tspan
         x="0 25.128 51.576 75.360001 101.808 132.26401 157.392 174.504 -210.84 -184.392 -157.944 -134.16 -109.032 -86.568001 -62.784 -36.335999"
         y="0"
         sodipodi:role="line"
         id="tspan62">COLOMBIAOVERSEAS</tspan></text></g></svg>
